<svg xmlns="http://www.w3.org/2000/svg" xmlns:svg="http://www.w3.org/2000/svg" id="svg36018" width="16" height="16" version="1.1" viewBox="0 0 16 16"><metadata id="metadata36015"/><g id="layer1" transform="translate(0,-292.76665)"><path id="path20599" fill="#888a85" fill-opacity="1" fill-rule="nonzero" stroke="none" stroke-width="1" d="m 8,292.76665 c -1.65335,0 -3,1.34665 -3,3 v 1 H 3.09375 C 2.48781,296.76665 2,297.25446 2,297.8604 v 9.8125 c 0,0.60594 0.48781,1.09375 1.09375,1.09375 h 9.8125 c 0.60594,0 1.09375,-0.48781 1.09375,-1.09375 v -6.67773 l -6.44141,6.33398 -4.125,-4.07617 2.0625,-1.99414 2.03125,1.97656 6.20313,-6.07227 c -0.20033,-0.23701 -0.48817,-0.39648 -0.82422,-0.39648 H 11 v -1 c 0,-1.65335 -1.34665,-3 -3,-3 z m 0,1 c 1.11665,0 2,0.88335 2,2 v 1 H 6 v -1 c 0,-1.11665 0.88335,-2 2,-2 z m -2.53125,4 c 0.28679,0 0.53125,0.22386 0.53125,0.5 0,0.27614 -0.24446,0.5 -0.53125,0.5 -0.28679,0 -0.5,-0.22386 -0.5,-0.5 0,-0.27614 0.21321,-0.5 0.5,-0.5 z m 5,0 c 0.28679,0 0.53125,0.22386 0.53125,0.5 0,0.27614 -0.24446,0.5 -0.53125,0.5 -0.28679,0 -0.5,-0.22386 -0.5,-0.5 0,-0.27614 0.21321,-0.5 0.5,-0.5 z" color="#000" display="inline" enable-background="accumulate" opacity="1" overflow="visible" visibility="visible" style="marker:none"/></g></svg>